<svg version="1.1" id="Capa_1" xmlns="http://www.w3.org/2000/svg" xmlns:xlink="http://www.w3.org/1999/xlink" x="0px" y="0px"
	 viewBox="0 0 470 470" style="enable-background:new 0 0 470 470;" xml:space="preserve"
   fill="#419be0"
   >
<g>
	<path d="M357.25,210h-62c-4.143,0-7.5,3.357-7.5,7.5v30c0,4.143,3.357,7.5,7.5,7.5h62c4.143,0,7.5-3.357,7.5-7.5v-30
		C364.75,213.357,361.393,210,357.25,210z M349.75,240h-47v-15h47V240z"/>
	<path d="M174,357.5h-61.25c-4.142,0-7.5,3.357-7.5,7.5v57.5c0,4.143,3.358,7.5,7.5,7.5H174c4.142,0,7.5-3.357,7.5-7.5V365
		C181.5,360.857,178.142,357.5,174,357.5z M166.5,415h-46.25v-42.5h46.25V415z"/>
	<path d="M265.25,357.5H204c-4.142,0-7.5,3.357-7.5,7.5v57.5c0,4.143,3.358,7.5,7.5,7.5h61.25c4.143,0,7.5-3.357,7.5-7.5V365
		C272.75,360.857,269.393,357.5,265.25,357.5z M257.75,415H211.5v-42.5h46.25V415z"/>
	<path d="M174,270h-61.25c-4.142,0-7.5,3.357-7.5,7.5V335c0,4.143,3.358,7.5,7.5,7.5H174c4.142,0,7.5-3.357,7.5-7.5v-57.5
		C181.5,273.357,178.142,270,174,270z M166.5,327.5h-46.25V285h46.25V327.5z"/>
	<path d="M265.25,270H204c-4.142,0-7.5,3.357-7.5,7.5V335c0,4.143,3.358,7.5,7.5,7.5h61.25c4.143,0,7.5-3.357,7.5-7.5v-57.5
		C272.75,273.357,269.393,270,265.25,270z M257.75,327.5H211.5V285h46.25V327.5z"/>
	<path d="M357.25,270h-62c-4.143,0-7.5,3.357-7.5,7.5v145c0,4.143,3.357,7.5,7.5,7.5h62c4.143,0,7.5-3.357,7.5-7.5v-50
		c0-4.143-3.357-7.5-7.5-7.5s-7.5,3.357-7.5,7.5V415h-47V285h47v57.5c0,4.143,3.357,7.5,7.5,7.5s7.5-3.357,7.5-7.5v-65
		C364.75,273.357,361.393,270,357.25,270z"/>
	<path d="M367.25,0h-264.5c-20.678,0-37.5,16.822-37.5,37.5v395c0,20.678,16.822,37.5,37.5,37.5h264.5
		c20.678,0,37.5-16.822,37.5-37.5v-395C404.75,16.822,387.928,0,367.25,0z M389.75,432.5c0,12.406-10.094,22.5-22.5,22.5h-264.5
		c-12.407,0-22.5-10.094-22.5-22.5v-395c0-12.406,10.093-22.5,22.5-22.5h264.5c12.406,0,22.5,10.094,22.5,22.5V432.5z"/>
	<path d="M357.25,40H113.5c-4.142,0-7.5,3.357-7.5,7.5v90c0,4.143,3.358,7.5,7.5,7.5h243.75c4.143,0,7.5-3.357,7.5-7.5v-90
		C364.75,43.357,361.393,40,357.25,40z M121,55h94.393l-75,75H121V55z M349.75,130H221.607l21.59-21.59
		c2.929-2.93,2.929-7.678,0-10.607c-2.93-2.928-7.679-2.927-10.607,0L200.393,130h-38.786l75-75h38.785l-21.59,21.59
		c-2.929,2.93-2.929,7.678,0,10.607c1.465,1.464,3.385,2.196,5.304,2.196s3.839-0.732,5.304-2.196L296.607,55h53.143V130z"/>
	<path d="M357.25,170H204c-4.142,0-7.5,3.357-7.5,7.5s3.358,7.5,7.5,7.5h153.25c4.143,0,7.5-3.357,7.5-7.5S361.393,170,357.25,170z"
		/>
	<path d="M174,170h-60.5c-4.142,0-7.5,3.357-7.5,7.5s3.358,7.5,7.5,7.5H174c4.142,0,7.5-3.357,7.5-7.5S178.142,170,174,170z"/>
</g>
</svg>
