<svg viewBox="5.741 10.117 503.945 522.102" width="503.945" height="522.102">
  <g transform="matrix(0.1, 0, 0, -0.1, -390.258698, 776.964355)" fill="current">
    <path
    d="M4340 7651 c-83 -26 -95 -36 -124 -96 -17 -37 -37 -62 -57 -73 -57
-31 -75 -50 -89 -94 -8 -24 -24 -67 -37 -96 -26 -60 -28 -88 -11 -178 10 -58
10 -68 -10 -111 -33 -74 -33 -84 -12 -158 l20 -70 -30 -58 c-16 -31 -30 -71
-30 -88 0 -17 19 -65 42 -108 l42 -77 -13 -70 c-13 -65 -12 -74 7 -116 11 -25
37 -58 57 -74 82 -63 103 -86 134 -143 17 -33 48 -79 67 -103 20 -23 49 -71
66 -105 23 -48 43 -73 87 -107 44 -34 67 -62 99 -122 23 -44 70 -123 105 -176
358 -560 375 -585 423 -648 24 -30 70 -116 103 -190 69 -152 79 -173 179 -355
82 -152 147 -308 168 -409 17 -80 39 -129 94 -201 82 -110 97 -172 60 -245
-24 -47 -55 -71 -190 -145 -329 -181 -366 -218 -321 -321 29 -64 111 -162 168
-201 55 -37 324 -142 458 -178 50 -13 130 -35 179 -49 153 -43 212 -48 345
-25 64 11 175 24 246 28 151 9 189 22 279 97 32 27 88 65 124 84 57 31 69 43
96 94 37 72 75 98 181 127 124 33 160 82 120 159 -23 45 -67 63 -134 56 -171
-20 -178 -20 -234 8 -66 32 -86 53 -93 98 -5 29 1 43 40 98 160 224 206 310
277 520 39 113 48 130 93 175 43 43 69 57 171 97 66 26 190 76 275 113 85 36
188 80 228 96 101 40 218 109 332 195 128 96 137 105 298 289 77 88 177 201
221 250 109 120 151 183 158 234 5 39 4 41 -19 41 -14 0 -45 -7 -69 -15 -85
-30 -235 -64 -314 -70 -141 -11 -181 -23 -428 -120 -431 -171 -433 -172 -593
-326 -84 -80 -109 -99 -134 -99 -58 0 -64 25 -71 284 -7 264 -17 320 -83 461
-89 189 -224 267 -436 251 -144 -10 -262 -55 -316 -119 -69 -82 -112 -228
-120 -412 -6 -142 -9 -159 -30 -179 -23 -24 -49 -19 -89 15 -65 58 -71 72
-206 484 -70 216 -103 287 -185 400 -32 44 -107 152 -167 240 -222 325 -385
517 -540 638 -81 64 -245 228 -358 359 -75 88 -139 183 -233 349 -42 74 -94
151 -116 172 -45 42 -65 45 -150 18z"></path>
  </g>
</svg>
